# xmcd
#
# Track frame offsets:
#	150
#	16677
#	32882
#	51823
#	63615
#	82321
#	111536
#	128729
#	154438
#	178907
#	189192
#	207282
#	221970
#	239187
#	254961
#	270227
#	290116
#	299079
#	323051
#
# Disc length: 4666 seconds
#
# Revision: 0
# Processed by: cddbd v1.5.2PL0 Copyright (c) Steve Scherf et al.
# Submitted via: EasyCDDAExtractor 12.1.0.1
#
DISCID=42123813
DTITLE=Various Artist - 올 더 베스트 CD2
DYEAR=1900
DGENRE=Pop
TTITLE0=Michael Cretu - Moonlight Flower
TTITLE1=The Commodores - Three Times A Lady
TTITLE2=Mark Almond - Just A Friend
TTITLE3=Paul Mauriat - Love Is Blue
TTITLE4=Opus - Live Is Life
TTITLE5=Tears For Fears - Shout
TTITLE6=Asia - Heat Of The Moment
TTITLE7=Thin Lizzy - Whiskey In The Jar
TTITLE8=Deep Purple - Perfect Strangers
TTITLE9=Louis Armstrong - What A Wonderful World
TTITLE10=Level 42 - Lessons In Love
TTITLE11=Gloria Gaynor - I Will Survive
TTITLE12=Visage - Fade To Grey
TTITLE13=Kool and The Gang - Get Down On It
TTITLE14=Barry White - You're The First The Last My Everything
TTITLE15=Robert Palmer - Addicted To Love
TTITLE16=Tom Jones - It's Not Unusual
TTITLE17=Joan Osborne - One Of Us
TTITLE18=10cc - I'm Not In Love
EXTD=
EXTT0=
EXTT1=
EXTT2=
EXTT3=
EXTT4=
EXTT5=
EXTT6=
EXTT7=
EXTT8=
EXTT9=
EXTT10=
EXTT11=
EXTT12=
EXTT13=
EXTT14=
EXTT15=
EXTT16=
EXTT17=
EXTT18=
PLAYORDER=
